{"title":"Final Cut: Ladies and Gentlemen (2012)","uid":11228703,"size":1593052219,"categoryP":"video","categoryS":"movies","magnet":"?xt=urn:btih:4a4177a08c9027aa6a094fd753a2f72302fbb89b&amp;dn=Final+Cut%3A+Ladies+and+Gentlemen+%282012%29&amp;tr=udp%3A%2F%2Ftracker.openbittorrent.com%3A80&amp;tr=udp%3A%2F%2Fopen.demonii.com%3A1337&amp;tr=udp%3A%2F%2Ftracker.coppersurfer.tk%3A6969&amp;tr=udp%3A%2F%2Fexodus.desync.com%3A6969","seeders":5,"leechers":1,"uploader":"cavallone","files":1,"time":1413489908,"description":"Plot: A film where anything can happen - the hero and the heroine changes their faces, age, look, names, and so on. The only same thing: the LOVE between man and woman... in an archetypical love story cut from 500 classics from all around the world.\n\nSpecs: \n\n\nGeneral\nFormat : Matroska\nFormat version : Version 4 / Version 2\nFile size : 1.48 GiB\nDuration : 1h 25mn\nOverall bit rate : 2 476 Kbps\nEncoded date : UTC 2014-03-02 13:56:15\nWriting application : mkvmerge v6.7.0 ('Back to the Ground') 32bit built on Jan 8 2014 15:03:17\nWriting library : libebml v1.3.0 + libmatroska v1.4.1\n\nVideo\nID : 1\nFormat : AVC\nFormat/Info : Advanced Video Codec\nFormat profile : &lt;a class=&quot;__cf_email__&quot; href=&quot;/cdn-cgi/l/email-protection&quot; data-cfemail=&quot;723a1b151a323e465c42&quot;&gt;[email&amp;#160;protected]&lt;/a&gt;&lt;script cf-hash='f9e31' type=&quot;text/javascript&quot;&gt;\n/* &lt;![CDATA[ */!function(){try{var t=&quot;currentScript&quot;in document?document.currentScript:function(){for(var t=document.getElementsByTagName(&quot;script&quot;),e=t.length;e--;)if(t[e].getAttribute(&quot;cf-hash&quot;))return t[e]}();if(t&amp;&amp;t.previousSibling){var e,r,n,i,c=t.previousSibling,a=c.getAttribute(&quot;data-cfemail&quot;);if(a){for(e=&quot;&quot;,r=parseInt(a.substr(0,2),16),n=2;a.length-n;n+=2)i=parseInt(a.substr(n,2),16)^r,e+=String.fromCharCode(i);e=document.createTextNode(e),c.parentNode.replaceChild(e,c)}}}catch(u){}}();/* ]]&gt; */&lt;/script&gt;\nFormat settings, CABAC : Yes\nFormat settings, ReFrames : 8 frames\nCodec ID : V_MPEG4/ISO/AVC\nDuration : 1h 25mn\nBit rate : 2 250 Kbps\nWidth : 720 pixels\nHeight : 576 pixels\nDisplay aspect ratio : 16:9\nFrame rate mode : Constant\nFrame rate : 25.000 fps\nStandard : PAL\nColor space : YUV\nChroma subsampling : 4:2:0\nBit depth : 8 bits\nScan type : Progressive\nBits/(Pixel*Frame) : 0.217\nStream size : 1.32 GiB (89%)\nWriting library : x264 core 130 r2273 b3065e6\nEncoding settings : cabac=1 / ref=8 / deblock=1:-1:-1 / analyse=0x3:0x133 / me=umh / subme=9 / psy=1 / psy_rd=1.00:0.15 / mixed_ref=1 / me_range=16 / chroma_me=1 / trellis=2 / 8x8dct=1 / cqm=0 / deadzone=21,11 / fast_pskip=1 / chroma_qp_offset=-3 / threads=18 / lookahead_threads=1 / sliced_threads=0 / nr=0 / decimate=1 / interlaced=0 / bluray_compat=0 / constrained_intra=0 / bframes=3 / b_pyramid=2 / b_adapt=2 / b_bias=0 / direct=3 / weightb=1 / open_gop=0 / weightp=2 / keyint=250 / keyint_min=25 / scenecut=40 / intra_refresh=0 / rc_lookahead=60 / rc=2pass / mbtree=1 / bitrate=2250 / ratetol=1.0 / qcomp=0.60 / qpmin=0 / qpmax=69 / qpstep=4 / cplxblur=20.0 / qblur=0.5 / vbv_maxrate=25000 / vbv_bufsize=31250 / nal_hrd=none / ip_ratio=1.40 / aq=1:1.00\nLanguage : English\nDefault : Yes\nForced : No\nColor primaries : BT.601 PAL\nTransfer characteristics : BT.709\nMatrix coefficients : BT.601\n\nAudio\nID : 2\nFormat : AC-3\nFormat/Info : Audio Coding 3\nMode extension : CM (complete main)\nFormat settings, Endianness : Big\nCodec ID : A_AC3\nDuration : 1h 25mn\nBit rate mode : Constant\nBit rate : 224 Kbps\nChannel(s) : 2 channels\nChannel positions : Front: L R\nSampling rate : 48.0 KHz\nBit depth : 16 bits\nCompression mode : Lossy\nStream size : 137 MiB (9%)\nLanguage : Hungarian\nDefault : Yes\nForced : No\n\nText #1\nID : 3\nFormat : VobSub\nMuxing mode : zlib\nCodec ID : S_VOBSUB\nCodec ID/Info : The same subtitle format used on DVDs\nLanguage : English\nDefault : No\nForced : No\n\nText #2\nID : 4\nFormat : VobSub\nMuxing mode : zlib\nCodec ID : S_VOBSUB\nCodec ID/Info : The same subtitle format used on DVDs\nLanguage : French\nDefault : No\nForced : No\n\nText #3\nID : 5\nFormat : VobSub\nMuxing mode : zlib\nCodec ID : S_VOBSUB\nCodec ID/Info : The same subtitle format used on DVDs\nLanguage : Italian\nDefault : No\nForced : No\n\nText #4\nID : 6\nFormat : VobSub\nMuxing mode : zlib\nCodec ID : S_VOBSUB\nCodec ID/Info : The same subtitle format used on DVDs\nLanguage : Hungarian\nDefault : No\nForced : No\n\nText #5\nID : 7\nFormat : VobSub\nMuxing mode : zlib\nCodec ID : S_VOBSUB\nCodec ID/Info : The same subtitle format used on DVDs\nLanguage : Romanian\nDefault : No\nForced : No\n\nMenu\n00:00:00.000 : en:Chapter 1\n00:01:49.280 : en:Chapter 2\n00:03:41.680 : en:Chapter 3\n00:04:58.000 : en:Chapter 4\n00:06:01.200 : en:Chapter 5\n00:08:55.680 : en:Chapter 6\n00:11:10.560 : en:Chapter 7\n00:12:15.880 : en:Chapter 8\n00:14:37.600 : en:Chapter 9\n00:16:53.640 : en:Chapter 10\n00:19:40.680 : en:Chapter 11\n00:21:55.960 : en:Chapter 12\n00:23:23.320 : en:Chapter 13\n00:27:31.920 : en:Chapter 14\n00:31:51.880 : en:Chapter 15\n00:34:00.360 : en:Chapter 16\n00:36:14.880 : en:Chapter 17\n00:37:43.960 : en:Chapter 18\n00:39:07.160 : en:Chapter 19\n00:41:06.160 : en:Chapter 20\n00:44:33.720 : en:Chapter 21\n00:50:30.000 : en:Chapter 22\n00:52:31.080 : en:Chapter 23\n00:55:48.440 : en:Chapter 24\n00:57:59.000 : en:Chapter 25\n01:02:32.520 : en:Chapter 26\n01:07:54.960 : en:Chapter 27\n01:11:48.120 : en:Chapter 28\n01:16:04.000 : en:Chapter 29\n01:17:58.800 : en:Chapter 30\n\n\nSubtitles: English, French, Italian, Hungarian,Romanian","torrent":{"xt":"urn:btih:4a4177a08c9027aa6a094fd753a2f72302fbb89b","amp;dn":"Final+Cut%3A+Ladies+and+Gentlemen+%282012%29","amp;tr":["udp%3A%2F%2Ftracker.openbittorrent.com%3A80","udp%3A%2F%2Fopen.demonii.com%3A1337","udp%3A%2F%2Ftracker.coppersurfer.tk%3A6969","udp%3A%2F%2Fexodus.desync.com%3A6969"],"infoHash":"4a4177a08c9027aa6a094fd753a2f72302fbb89b","infoHashBuffer":{"type":"Buffer","data":[74,65,119,160,140,144,39,170,106,9,79,215,83,162,247,35,2,251,184,155]},"announce":[],"urlList":[]}}